PathFileType	4	(X/Y/Z)	C:/Users/opensim2020/Desktop/walking_exp_matlab/subject03_walking14_straight_02.trc																																																																																																																																											
DataRate	CameraRate	NumFrames	NumMarkers	Units	OrigDataRate	OrigDataStartFrame	OrigNumFrames																																																																																																																																							
100	100	8	47	mm	100	1086	168																																																																																																																																							
Frame#	Time	LFHD			RFHD			LBHD			RBHD			C7			T10			CLAV			STRN			RBAK			LSHO			LUPA			LELB			LFRM			LWRA			LWRB			LFIN			RSHO			RUPA			RELB			RFRM			RWRA			RWRB			RFIN			LASI			RASI			LPSI			RPSI			LTHI			LKNE			LTIB			LANK			LHEE			LTOE			RTHI			RKNE			RTIB			RANK			RHEE			RTOE			*39			*40			*41			*42			*43			*44			*45			*46		
		X1	Y1	Z1	X2	Y2	Z2	X3	Y3	Z3	X4	Y4	Z4	X5	Y5	Z5	X6	Y6	Z6	X7	Y7	Z7	X8	Y8	Z8	X9	Y9	Z9	X10	Y10	Z10	X11	Y11	Z11	X12	Y12	Z12	X13	Y13	Z13	X14	Y14	Z14	X15	Y15	Z15	X16	Y16	Z16	X17	Y17	Z17	X18	Y18	Z18	X19	Y19	Z19	X20	Y20	Z20	X21	Y21	Z21	X22	Y22	Z22	X23	Y23	Z23	X24	Y24	Z24	X25	Y25	Z25	X26	Y26	Z26	X27	Y27	Z27	X28	Y28	Z28	X29	Y29	Z29	X30	Y30	Z30	X31	Y31	Z31	X32	Y32	Z32	X33	Y33	Z33	X34	Y34	Z34	X35	Y35	Z35	X36	Y36	Z36	X37	Y37	Z37	X38	Y38	Z38	X39	Y39	Z39	X40	Y40	Z40	X41	Y41	Z41	X42	Y42	Z42	X43	Y43	Z43	X44	Y44	Z44	X45	Y45	Z45	X46	Y46	Z46	X47	Y47	Z47
																																																																																																																																														
43	0.42	-621.3313	1606.64453	903.24219	-630.78467	1616.32605	1035.49463	-744.11102	1548.89307	902.00732	-747.99042	1558.29626	1032.57166	-762.06995	1394.08887	971.41711	-789.96014	1083.84436	975.93787	-635.95361	1323.9585	969.88629	-588.54303	1158.2655	969.40851	-805.12946	1222.36377	1075.06714	-693.62726	1355.99988	814.03967	-721.76715	1158.1283	746.39178	-726.15259	1035.63928	732.01154	-718.76581	905.51904	723.23151	-713.56812	784.10431	745.39258	-743.81458	795.87451	698.97797	-738.79315	711.74713	700.25909	-679.16754	1351.53442	1128.92346	-616.49402	1150.85278	1218.24927	-556.82941	1056.93787	1239.2124	-477.85553	945.17438	1246.63098	-407.12976	874.72839	1213.45325	-430.83838	857.56409	1258.25732	-375.28494	808.99084	1251.99011	-623.33759	918.84833	868.74573	-636.29321	922.01953	1104.11975	-788.87598	936.73511	905.69269	-793.80493	954.67737	1054.98511	-608.09906	620.24689	811.52515	-524.34064	466.87811	856.68127	-498.11157	278.64667	842.78479	-436.55182	74.56942	870.28796	-466.92822	25.97412	902.9953	-288.43079	83.0117	907.57635	-738.90814	635.62585	1145.16541	-768.36542	457.12943	1111.2666	-867.55182	289.53174	1117.79285	-964.91553	93.95952	1074.76501	-1018.45703	73.44276	1027.2959	-835.86823	31.44967	1056.64209	-712.79602	1660.59167	945.56329	NaN	NaN	NaN	NaN	NaN	NaN	NaN	NaN	NaN	NaN	NaN	NaN	NaN	NaN	NaN	NaN	NaN	NaN	NaN	NaN	NaN
44	0.43	-608.13422	1605.35559	902.27502	-617.60022	1615.36145	1034.54797	-730.74542	1547.20288	901.24359	-734.6153	1556.93079	1031.79785	-748.43994	1392.8374	970.38318	-776.42773	1082.53516	974.30981	-622.1275	1322.88733	969.38599	-575.01245	1157.0343	969.24048	-792.04169	1221.24719	1073.86829	-678.97992	1354.73193	813.2439	-708.73352	1157.11206	745.60083	-714.95197	1034.65588	731.15448	-711.02472	904.44073	721.91187	-710.11279	782.74274	743.45581	-739.10388	795.59967	696.99219	-738.56641	710.84296	699.21075	-666.13306	1350.41406	1128.2113	-602.79218	1150.43835	1218.02136	-542.1488	1057.42139	1239.02991	-459.9855	948.06665	1245.66858	-387.14432	880.23999	1211.75842	-410.33417	861.83203	1256.37659	-352.91391	815.43298	1249.82874	-608.46167	917.66687	868.64276	-624.01703	921.02673	1104.09375	-774.32739	935.16248	903.56329	-780.93365	953.13342	1052.73755	-596.2475	618.42352	809.07971	-511.22021	465.93491	856.3703	-481.46976	278.32373	841.58514	-417.36728	74.89996	868.61914	-446.87149	25.72297	901.37805	-268.81467	85.52499	904.0448	-728.04602	634.95105	1144.87073	-758.57281	456.43753	1111.34326	-861.31885	290.73013	1117.77148	-962.98334	97.3086	1074.89331	-1016.85828	78.08546	1027.27686	-835.61023	31.43547	1056.69836	-699.80249	1659.35474	944.60907	NaN	NaN	NaN	NaN	NaN	NaN	NaN	NaN	NaN	NaN	NaN	NaN	NaN	NaN	NaN	NaN	NaN	NaN	NaN	NaN	NaN
45	0.44	-594.91443	1604.11438	901.30176	-604.33575	1614.41614	1033.5155	-717.36383	1545.61377	900.44678	-721.09338	1555.58948	1030.93201	-734.73889	1391.58582	969.29419	-762.68787	1081.28784	972.76361	-608.33252	1321.76282	968.86621	-561.20648	1156.0061	969.00616	-778.76221	1220.1228	1072.55554	-664.22406	1353.56104	812.37177	-695.41571	1156.05078	744.72626	-703.58533	1033.83704	730.23553	-702.74493	903.55042	720.73254	-705.6153	781.22113	742.75922	-733.51007	795.55823	695.09283	-737.49255	710.38092	698.13245	-653.06274	1349.40601	1127.41479	-589.21936	1150.03748	1217.72034	-527.87268	1057.76416	1238.77405	-442.73959	950.81696	1244.49585	-367.95172	885.59271	1210.04431	-390.61908	865.98456	1254.35571	-331.53714	821.92395	1247.58545	-593.58704	916.7702	868.42316	-611.30383	919.98578	1103.84595	-759.70343	933.91034	901.53558	-767.73822	951.61902	1050.63342	-581.52734	617.96808	808.13348	-497.78867	465.37012	855.90979	-467.07001	277.23367	840.80847	-403.00223	74.09183	867.31085	-431.23404	24.47694	900.87256	-253.40323	85.67896	901.46161	-716.71381	634.26135	1144.48682	-747.94513	455.67508	1111.4679	-854.37805	291.94937	1117.8446	-960.50946	100.89036	1075.00867	-1014.92664	83.25928	1027.45569	-835.21906	31.36771	1056.80701	-686.73383	1657.67896	943.4325	NaN	NaN	NaN	NaN	NaN	NaN	NaN	NaN	NaN	NaN	NaN	NaN	NaN	NaN	NaN	NaN	NaN	NaN	NaN	NaN	NaN
46	0.45	-581.72473	1603.03528	900.26227	-591.07318	1613.55945	1032.51465	-703.88519	1544.16272	899.6261	-707.76746	1554.41345	1030.151	-721.01404	1390.45581	968.06531	-748.71381	1080.06555	971.17499	-594.39038	1320.85046	968.26813	-547.1911	1155.01611	968.62225	-765.33917	1218.97522	1071.15808	-649.39069	1352.49792	811.41138	-681.94415	1155.15576	743.79352	-691.9873	1033.23792	729.22705	-693.87909	902.83356	719.56812	-700.22412	780.6474	741.17676	-726.97821	795.66632	693.46796	-735.41107	710.28308	697.39502	-639.8916	1348.31238	1126.59204	-575.85901	1149.72131	1217.44189	-513.97314	1058.00342	1238.40149	-426.09125	953.40314	1243.24805	-349.55463	890.71985	1208.28882	-371.80923	869.92957	1252.26404	-310.98215	828.07971	1245.30249	-578.6687	916.15375	868.10345	-598.20068	918.92596	1103.37817	-744.91528	932.89545	899.62286	-754.12567	950.24237	1048.60559	-564.56506	618.41815	808.341	-484.23636	464.73315	854.71399	-454.41083	275.7298	839.60657	-391.67944	71.90878	866.51044	-420.60226	22.61908	899.84106	-242.32471	83.01951	900.45184	-704.87524	633.51691	1143.98633	-736.58478	454.78836	1111.59094	-846.76093	293.25113	1117.95483	-957.70099	104.97373	1075.42676	-1012.46063	88.82651	1027.72949	-834.80688	31.35104	1056.95276	-673.5531	1656.33777	942.23541	NaN	NaN	NaN	NaN	NaN	NaN	NaN	NaN	NaN	NaN	NaN	NaN	NaN	NaN	NaN	NaN	NaN	NaN	NaN	NaN	NaN
47	0.46	-568.39679	1602.06812	899.2373	-577.74365	1612.82532	1031.45557	-690.41382	1542.87231	898.75531	-694.28632	1553.34583	1029.25684	-707.24023	1389.37842	966.77075	-734.60834	1078.9729	969.77655	-580.36023	1320.08337	967.64984	-533.00421	1154.39941	968.21393	-751.72772	1217.83142	1069.67065	-634.46729	1351.56995	810.38275	-668.26379	1154.427	742.7132	-680.54169	1032.65491	727.91455	-684.4325	902.3476	718.49933	-693.91046	780.15326	740.30951	-719.23138	795.87885	691.83307	-732.33246	710.48523	696.92279	-626.8479	1347.5553	1125.67236	-562.4483	1149.32507	1216.64294	-500.26419	1058.19836	1237.85645	-410.10767	955.7597	1241.93811	-331.9014	895.54193	1206.68384	-353.75867	873.45984	1250.15833	-291.44733	833.92041	1243.06824	-563.42291	915.85834	867.53003	-584.68579	917.8205	1102.74915	-730.26453	932.25287	897.99316	-740.11987	948.94922	1046.79236	-546.81836	619.25623	808.69391	-469.67374	464.66846	853.68872	-443.70844	273.76016	838.54578	-384.53894	69.02167	865.66528	-415.35455	22.59285	898.16339	-235.12758	77.32014	901.06573	-692.40009	632.64691	1143.32153	-724.29987	453.75836	1111.78442	-838.37787	294.56259	1118.16797	-954.45868	109.51746	1075.88513	-1009.52386	95.12202	1028.07813	-834.35211	31.14439	1057.08215	-660.45483	1655.23364	941.14825	NaN	NaN	NaN	NaN	NaN	NaN	NaN	NaN	NaN	NaN	NaN	NaN	NaN	NaN	NaN	NaN	NaN	NaN	NaN	NaN	NaN
48	0.47	-555.03857	1601.31592	898.24475	-564.47559	1612.21204	1030.48474	-676.85327	1541.76367	897.83862	-680.82611	1552.36902	1028.32532	-693.47205	1388.46521	965.38428	-720.19092	1078.00171	968.39252	-566.25543	1319.40039	966.92755	-518.67993	1153.83337	967.70386	-738.00415	1216.73059	1068.05164	-619.53113	1350.797	809.29913	-654.57935	1153.85437	741.52649	-668.21509	1032.30762	727.04474	-674.31488	901.97833	717.56561	-686.59149	779.91803	739.80328	-710.5719	796.10345	690.47284	-728.10345	710.98364	696.72864	-613.94165	1347.10266	1124.73254	-549.15302	1149.0509	1215.92004	-486.74838	1058.31799	1237.06152	-394.67313	957.78046	1240.58813	-315.04874	899.9101	1205.17053	-336.65399	876.54236	1248.09534	-272.98651	839.33044	1240.86523	-548.0799	915.78705	866.67505	-570.63867	916.65936	1101.95618	-715.2334	931.7619	896.26202	-725.83728	947.82056	1045.12256	-528.89215	620.30511	808.76263	-454.47278	464.82834	852.55377	-434.39841	271.56989	838.27313	-379.59985	66.35359	866.40741	-413.0372	23.30909	899.07526	-229.76012	64.77898	901.89697	-679.24402	631.60193	1142.5719	-711.02191	452.57751	1112.04919	-829.24359	295.98062	1118.41821	-950.55145	114.41048	1076.24243	-1005.86438	102.05234	1028.35803	-833.7041	31.11007	1057.19983	-647.33911	1654.51001	940.27673	NaN	NaN	NaN	NaN	NaN	NaN	NaN	NaN	NaN	NaN	NaN	NaN	NaN	NaN	NaN	NaN	NaN	NaN	NaN	NaN	NaN
49	0.48	-541.63971	1600.89575	897.20947	-551.12598	1611.93286	1029.46826	-663.25952	1540.86548	896.91083	-667.26636	1551.6416	1027.38367	-679.75	1387.78271	963.89197	-705.39771	1077.2417	966.90326	-551.9964	1319.0614	966.12598	-504.31171	1153.6062	967.04175	-724.17395	1215.71387	1066.20691	-604.53088	1350.33569	808.0799	-640.90033	1153.54749	740.25238	-656.24146	1031.94409	725.50006	-663.70026	901.78528	716.65558	-678.4425	779.92584	739.4021	-700.96814	796.32928	689.35791	-722.67993	711.71906	696.69269	-600.86761	1346.5271	1123.68091	-535.94366	1148.83289	1215.00928	-473.36649	1058.39209	1236.07068	-379.78098	959.42157	1239.21875	-299.11829	903.57642	1203.54626	-320.31128	879.06311	1246.02148	-255.52469	844.07507	1238.83606	-533.14606	916.08215	865.74872	-556.22662	915.50726	1101.12354	-700.44916	931.92517	894.60443	-711.50983	946.81262	1043.69849	-511.11429	622.07922	808.81281	-439.54892	465.12534	851.3974	-425.57217	270.16986	840.02826	-374.9826	65.68204	866.35962	-411.2674	25.64333	899.14581	-225.80299	49.9137	903.53229	-665.21918	630.37604	1141.703	-696.67664	451.16577	1112.17688	-819.2113	297.50854	1118.54675	-945.94238	120.07025	1076.94128	-1001.3075	109.80322	1028.8717	-832.86749	31.01121	1057.29102	-634.08026	1653.79358	939.0874	NaN	NaN	NaN	NaN	NaN	NaN	NaN	NaN	NaN	NaN	NaN	NaN	NaN	NaN	NaN	NaN	NaN	NaN	NaN	NaN	NaN
50	0.49	-528.32928	1601.0874	896.07385	-537.82007	1612.34668	1028.3894	-649.55359	1540.46582	895.88599	-653.58911	1551.41077	1026.36975	-665.99823	1387.53125	962.24268	-690.72375	1076.97363	965.6723	-537.83252	1319.23792	965.19885	-490.07745	1153.91272	966.28278	-710.36493	1215.09692	1064.02014	-589.57745	1350.27014	806.76678	-627.10352	1153.61182	738.8349	-643.81897	1032.08093	724.1778	-652.42731	901.91327	715.78687	-669.35687	780.34637	739.18597	-690.56219	796.77997	688.36023	-716.05402	712.85394	696.83875	-587.98615	1346.7168	1122.77478	-522.78943	1148.76221	1213.82593	-460.14981	1058.50598	1234.9231	-365.46439	960.73468	1237.82239	-283.70386	906.93756	1202.37085	-304.8692	881.09924	1243.95935	-239.10284	848.05469	1236.8573	-518.42505	916.95117	864.60785	-541.55542	914.55731	1099.99426	-685.5246	932.8349	893.2738	-696.85016	945.94611	1042.56677	-493.61798	625.25256	808.60638	-424.58151	466.68082	850.26123	-415.05722	270.75412	839.63373	-370.39172	64.87491	865.95978	-409.15515	27.04241	898.54663	-223.1881	40.48065	906.76093	-650.18378	629.10962	1140.69177	-681.01233	449.68503	1112.24658	-808.12262	299.42426	1118.49109	-940.09576	126.23333	1077.41858	-995.3161	118.48616	1028.78345	-831.8725	30.9318	1057.27563	-620.95984	1653.5686	937.94983	NaN	NaN	NaN	NaN	NaN	NaN	NaN	NaN	NaN	NaN	NaN	NaN	NaN	NaN	NaN	NaN	NaN	NaN	NaN	NaN	NaN
